<?xml version="1.0" standalone="no"?>
<!DOCTYPE svg PUBLIC "-//W3C//DTD SVG 20010904//EN"
 "http://www.w3.org/TR/2001/REC-SVG-20010904/DTD/svg10.dtd">
<svg version="1.0" xmlns="http://www.w3.org/2000/svg"
 width="896.000000pt" height="1280.000000pt" viewBox="0 0 896.000000 1280.000000"
 preserveAspectRatio="xMidYMid meet">
<metadata>
Created by potrace 1.15, written by Peter Selinger 2001-2017
</metadata>
<g transform="translate(0.000000,1280.000000) scale(0.100000,-0.100000)"
fill="#000000" stroke="none">
<path d="M4400 12794 c-285 -32 -466 -76 -660 -159 -68 -30 -87 -33 -210 -39
-453 -20 -843 -166 -1152 -430 -139 -119 -294 -319 -363 -470 -68 -148 -123
-381 -150 -646 -24 -226 -10 -201 -118 -200 -85 1 -102 -2 -237 -48 l-145 -49
-545 -53 c-300 -29 -547 -55 -550 -57 -2 -2 -12 -255 -22 -561 -9 -306 -35
-1146 -58 -1867 -62 -2012 -117 -3758 -155 -4989 -19 -616 -34 -1121 -32
-1123 2 -2 120 -39 263 -82 142 -44 417 -127 609 -186 815 -248 1076 -328
1356 -414 162 -49 504 -153 759 -231 836 -254 1052 -321 1245 -380 105 -32
318 -97 475 -145 458 -139 1312 -400 1818 -555 l363 -111 1032 584 1032 584 3
4621 2 4622 -38 0 c-20 0 -249 13 -507 30 -259 16 -814 50 -1235 76 -421 26
-766 47 -767 48 -1 1 7 57 17 125 88 574 20 1093 -186 1402 -221 333 -727 599
-1306 685 -97 14 -462 27 -538 18z m445 -124 c592 -65 1125 -339 1330 -685
137 -231 206 -633 176 -1016 -11 -138 -44 -386 -53 -395 -5 -5 -768 43 -774
49 -2 2 1 83 8 179 32 474 -68 907 -267 1155 -184 230 -509 428 -883 537 -135
40 -280 72 -371 82 -39 4 -58 10 -49 15 28 16 219 59 319 73 123 17 437 20
564 6z m-839 -210 c558 -83 1037 -341 1233 -665 73 -121 135 -314 166 -522 19
-120 24 -413 11 -557 l-8 -89 -122 7 c-145 8 -1826 111 -2046 125 -85 6 -201
13 -257 17 l-103 7 0 76 c0 154 35 478 71 656 60 304 153 479 364 690 109 109
216 191 327 250 56 30 56 30 171 23 63 -3 150 -12 193 -18z m-567 7 c-99 -69
-265 -229 -345 -332 -199 -258 -283 -563 -325 -1175 -6 -91 -12 -166 -14 -168
-3 -3 -627 34 -734 44 l-63 6 6 81 c20 237 77 529 130 666 60 152 164 299 314
443 208 200 464 333 773 402 142 32 282 50 258 33z"/>
</g>
</svg>
