<?xml version="1.0" standalone="no"?>
<!DOCTYPE svg PUBLIC "-//W3C//DTD SVG 20010904//EN"
 "http://www.w3.org/TR/2001/REC-SVG-20010904/DTD/svg10.dtd">
<svg version="1.0" xmlns="http://www.w3.org/2000/svg"
 width="735.000000pt" height="1280.000000pt" viewBox="0 0 735.000000 1280.000000"
 preserveAspectRatio="xMidYMid meet">
<metadata>
Created by potrace 1.15, written by Peter Selinger 2001-2017
</metadata>
<g transform="translate(0.000000,1280.000000) scale(0.100000,-0.100000)"
fill="#000000" stroke="none">
<path d="M4705 12789 c-667 -9 -1964 -27 -2666 -36 l-526 -6 -754 -675 c-415
-370 -755 -675 -757 -677 -2 -2 2 -324 7 -716 6 -393 15 -1033 21 -1424 5
-390 14 -1036 20 -1435 6 -399 15 -1038 20 -1420 20 -1386 52 -3870 71 -5435
7 -528 13 -961 14 -963 2 -2 256 2 566 7 310 6 906 15 1324 21 3554 47 5299
72 5303 75 2 2 -2 335 -7 741 -6 407 -15 1077 -21 1489 -6 413 -15 1081 -20
1485 -5 404 -14 1070 -20 1480 -37 2744 -48 3613 -60 4450 -5 388 -13 940 -16
1227 l-7 523 -783 650 -783 650 -193 -2 c-106 -1 -436 -5 -733 -9z m-105 -334
c50 -26 65 -79 34 -123 -12 -17 -25 -22 -59 -22 -40 0 -46 3 -61 31 -19 38
-12 72 21 105 28 28 28 28 65 9z m251 -14 c34 -35 37 -68 8 -105 -18 -23 -28
-27 -62 -24 -73 5 -94 80 -40 140 24 26 61 22 94 -11z m198 18 c35 -12 51 -35
51 -71 -1 -51 -62 -88 -108 -66 -49 24 -55 114 -10 136 30 14 30 14 67 1z
m261 -9 c24 -24 24 -30 6 -73 -14 -34 -54 -67 -80 -67 -48 0 -76 102 -39 142
23 25 87 24 113 -2z m-2032 -26 c26 -17 28 -50 5 -84 -54 -79 -133 -61 -133
30 0 43 8 56 40 69 28 11 54 6 88 -15z m202 11 c64 -33 63 -97 -2 -131 -25
-13 -35 -13 -59 -4 -54 23 -59 119 -7 140 32 12 35 12 68 -5z m240 -13 c21
-22 27 -35 23 -55 -9 -49 -81 -84 -119 -59 -40 26 -44 93 -8 121 36 29 70 26
104 -7z m227 6 c44 -42 20 -112 -44 -124 -65 -13 -111 78 -63 126 27 27 77 26
107 -2z m237 1 c32 -25 34 -59 4 -93 -34 -38 -70 -42 -103 -14 -34 30 -40 92
-10 114 27 20 78 17 109 -7z m228 4 c46 -42 5 -123 -63 -123 -32 0 -41 5 -54
30 -33 64 -8 110 58 110 24 0 48 -7 59 -17z m-1811 -22 c33 -33 35 -50 14 -90
-16 -32 -33 -41 -74 -41 -61 0 -87 86 -40 136 30 32 64 30 100 -5z m202 18
c45 -20 60 -81 30 -118 -44 -52 -118 -29 -129 41 -5 30 -2 41 19 62 29 29 44
31 80 15z m226 0 c56 -20 67 -70 25 -113 -39 -38 -88 -36 -113 4 -24 40 -15
90 19 107 31 16 30 16 69 2z m-1105 -20 c31 -25 32 -38 6 -90 -37 -71 -97 -72
-127 -2 -33 81 52 146 121 92z m243 -11 c13 -12 23 -29 23 -38 0 -21 -35 -66
-62 -81 -30 -16 -74 6 -87 43 -17 47 -13 65 16 88 33 26 75 21 110 -12z m214
3 c34 -35 35 -37 9 -78 -32 -53 -106 -58 -128 -8 -19 41 -15 82 10 99 35 25
76 20 109 -13z m3107 -27 c26 -29 29 -70 6 -102 -23 -33 -86 -31 -113 4 -35
44 -25 94 24 122 26 15 55 6 83 -24z m-3738 -86 c44 -48 8 -118 -61 -118 -28
0 -42 6 -53 22 -21 29 -20 77 1 100 23 26 87 24 113 -4z m3918 -71 c6 -5 12
-29 12 -53 0 -33 -5 -46 -22 -58 -29 -21 -77 -20 -100 1 -21 19 -25 95 -5 111
27 22 86 22 115 -1z m-4076 -84 c47 -42 -3 -127 -71 -121 -30 2 -39 9 -56 40
-16 30 -17 40 -7 62 21 47 92 57 134 19z m4247 -73 c12 -23 12 -30 -3 -61 -15
-33 -60 -69 -85 -69 -26 0 -51 41 -51 82 0 59 22 80 79 76 37 -2 48 -8 60 -28z
m-2138 -31 c102 -33 174 -97 208 -184 29 -74 24 -219 -11 -295 -66 -147 -214
-226 -374 -201 -168 26 -272 146 -275 318 -3 172 90 318 236 371 50 18 146 14
216 -9z m-2287 -50 c53 -42 19 -129 -50 -129 -75 0 -103 118 -34 143 31 11 58
6 84 -14z m4557 -42 c42 -32 49 -81 18 -121 -42 -53 -129 -19 -129 51 0 61 67
104 111 70z m-4724 -102 c30 -21 38 -66 18 -104 -39 -77 -151 -27 -130 59 14
56 66 77 112 45z m4878 -49 c32 -14 35 -19 35 -55 0 -93 -114 -114 -139 -26
-11 38 2 73 31 85 31 12 34 12 73 -4z m-5022 -127 c56 -69 -47 -164 -113 -104
-20 18 -28 78 -12 101 26 38 94 40 125 3z m5197 -29 c59 -59 -16 -159 -90
-120 -22 12 -42 64 -33 88 19 53 84 71 123 32z m-5368 -117 c25 -23 24 -81 -4
-110 -29 -31 -81 -31 -102 -1 -21 29 -20 87 1 110 20 23 80 24 105 1z m5546
-50 c27 -29 22 -57 -14 -90 -61 -56 -141 -1 -120 82 13 50 92 55 134 8z
m-5710 -109 c33 -23 31 -86 -4 -113 -47 -37 -95 -23 -113 32 -13 37 -2 81 21
90 27 11 74 7 96 -9z m5862 -29 c25 -13 30 -22 30 -53 0 -43 -7 -55 -37 -71
-56 -29 -104 1 -106 65 -2 63 52 91 113 59z m-6025 -140 c33 -32 31 -60 -4
-96 -47 -47 -101 -35 -121 25 -11 36 -2 71 24 88 24 17 77 8 101 -17z m6133
-26 c52 -18 55 -71 8 -122 -47 -51 -103 -30 -121 45 -6 22 -1 33 23 58 33 33
44 35 90 19z m-6180 -161 c29 -29 5 -98 -44 -129 -27 -16 -37 -18 -54 -9 -39
21 -53 99 -23 132 19 21 102 25 121 6z m6177 -62 c75 -32 52 -146 -30 -146
-72 0 -97 87 -39 138 30 26 26 26 69 8z m-6191 -167 c20 -16 26 -29 26 -59 0
-65 -66 -101 -118 -64 -17 12 -22 25 -22 60 0 76 57 108 114 63z m6214 -65
c51 -35 10 -134 -56 -134 -34 0 -59 25 -68 67 -12 62 69 106 124 67z m-6210
-170 c33 -23 31 -86 -4 -113 -34 -26 -68 -27 -94 -1 -25 25 -27 86 -3 112 20
22 71 24 101 2z m6215 -51 c22 -21 23 -90 0 -115 -24 -27 -87 -24 -107 4 -40
56 3 148 62 133 15 -4 35 -14 45 -22z m-6209 -174 c54 -43 16 -129 -58 -129
-41 0 -66 28 -66 75 0 35 7 47 35 63 30 17 59 14 89 -9z m6214 -35 c34 -24 29
-69 -12 -110 -41 -41 -67 -43 -95 -8 -27 34 -27 88 -1 114 24 24 77 26 108 4z
m-6235 -175 c48 -22 61 -88 25 -126 -60 -64 -160 19 -117 98 9 18 39 36 61 38
4 1 18 -4 31 -10z m6244 -50 c23 -20 16 -74 -16 -108 -40 -42 -84 -43 -106 -1
-29 55 -15 104 35 123 20 8 70 0 87 -14z m-6204 -211 c18 -24 18 -30 7 -58
-15 -36 -37 -50 -78 -50 -54 0 -88 69 -58 116 15 22 23 25 63 22 36 -2 50 -9
66 -30z m6192 -5 c27 -26 35 -59 24 -93 -29 -82 -139 -57 -139 32 0 46 28 78
69 78 16 0 37 -7 46 -17z m-6224 -174 c48 -25 54 -115 9 -139 -80 -43 -150 61
-85 125 26 27 46 31 76 14z m6237 -55 c26 -18 28 -44 7 -84 -18 -34 -43 -50
-79 -50 -51 0 -79 88 -41 130 22 24 81 27 113 4z m-6213 -189 c39 -38 32 -86
-16 -110 -39 -21 -56 -19 -84 10 -29 29 -33 79 -8 107 24 27 78 24 108 -7z
m6194 -20 c71 -36 45 -145 -34 -145 -94 0 -95 152 -2 159 4 1 21 -6 36 -14z
m-6191 -201 c33 -23 30 -78 -7 -115 -51 -51 -102 -32 -116 43 -6 31 -3 41 19
62 29 30 70 34 104 10z m6216 -26 c53 -76 -33 -167 -104 -110 -28 23 -31 83
-5 112 26 29 89 28 109 -2z m-6218 -212 c56 -47 25 -136 -47 -136 -63 0 -91
79 -48 134 26 33 59 33 95 2z m6214 4 c13 -13 20 -33 20 -57 0 -46 -8 -59 -43
-72 -50 -19 -97 14 -97 67 0 69 74 108 120 62z m8 -226 c32 -22 29 -66 -9
-109 -56 -63 -119 -35 -119 55 0 60 74 92 128 54z m-6214 -15 c34 -27 35 -71
1 -104 -13 -14 -36 -25 -50 -25 -36 0 -75 42 -75 80 0 63 70 91 124 49z m0
-210 c51 -40 20 -139 -44 -139 -46 0 -75 31 -75 80 0 71 63 103 119 59z m6209
0 c31 -17 38 -30 31 -59 -9 -41 -53 -80 -91 -80 -26 0 -36 6 -48 30 -21 40
-19 70 7 97 24 25 66 30 101 12z m-6194 -245 c27 -34 26 -46 -5 -83 -19 -23
-34 -31 -58 -31 -52 0 -89 57 -65 102 16 31 28 38 71 38 28 0 42 -6 57 -26z
m6202 7 c17 -13 23 -29 23 -56 0 -80 -102 -106 -139 -34 -21 39 -19 56 10 84
29 30 73 33 106 6z m-6195 -202 c51 -42 -46 -168 -102 -131 -18 12 -34 49 -34
81 0 59 87 91 136 50z m6203 -25 c28 -35 26 -69 -4 -99 -67 -68 -165 24 -109
103 23 33 86 31 113 -4z m-6230 -189 c52 -26 56 -81 9 -120 -23 -20 -38 -25
-57 -20 -37 9 -50 23 -57 60 -7 39 9 73 39 85 31 12 34 12 66 -5z m6233 -42
c22 -20 24 -76 2 -97 -45 -45 -113 -25 -129 38 -8 36 -7 40 20 63 32 28 74 26
107 -4z m-6212 -203 c44 -44 9 -130 -52 -130 -41 0 -68 32 -68 79 0 23 7 46
16 55 22 23 80 20 104 -4z m6211 10 c31 -17 26 -81 -10 -119 -53 -56 -113 -30
-115 50 0 32 5 45 23 60 26 21 72 25 102 9z m-6212 -227 c54 -46 22 -136 -49
-136 -67 0 -97 91 -44 132 33 26 65 27 93 4z m6212 -22 c27 -22 32 -82 8 -106
-47 -47 -129 -14 -129 52 0 20 7 45 17 55 21 24 74 23 104 -1z m-6204 -213
c33 -31 30 -70 -8 -102 -38 -32 -63 -33 -94 -1 -29 28 -32 70 -9 103 21 30 79
30 111 0z m6192 -3 c46 -24 55 -74 20 -119 -43 -54 -129 -18 -129 54 0 19 10
37 31 54 36 30 40 31 78 11z m-6184 -218 c22 -18 25 -28 20 -50 -10 -38 -61
-87 -91 -87 -41 0 -81 89 -56 126 25 38 90 44 127 11z m6196 -8 c66 -35 25
-139 -55 -139 -30 0 -66 42 -66 77 0 53 71 89 121 62z m-6194 -205 c20 -20 24
-31 19 -56 -7 -38 -23 -57 -53 -69 -34 -13 -72 6 -87 43 -35 83 57 146 121 82z
m6198 -16 c33 -15 41 -48 21 -87 -37 -70 -100 -79 -129 -18 -38 78 27 142 108
105z m-6201 -209 c14 -17 26 -39 26 -49 0 -29 -48 -80 -76 -80 -35 0 -74 42
-74 80 0 38 39 80 74 80 15 0 34 -12 50 -31z m6211 -34 c16 -15 25 -36 25 -55
0 -38 -39 -80 -73 -80 -62 0 -97 82 -57 133 28 35 72 36 105 2z m-6204 -185
c28 -16 25 -71 -6 -109 -47 -55 -94 -50 -115 14 -20 60 8 105 66 105 20 0 44
-5 55 -10z m6209 -30 c39 -39 18 -121 -35 -134 -25 -6 -64 7 -77 28 -14 20 -8
89 9 108 22 24 77 24 103 -2z m-6213 -192 c27 -25 30 -73 7 -106 -19 -27 -78
-30 -106 -5 -23 21 -24 89 -1 115 22 25 71 23 100 -4z m6215 -35 c43 -39 3
-133 -57 -133 -56 0 -88 88 -48 132 20 23 80 24 105 1z m-6211 -192 c29 -23
31 -81 4 -111 -24 -26 -78 -27 -105 0 -25 25 -27 86 -3 112 21 24 74 23 104
-1z m6217 -27 c12 -8 22 -25 22 -38 0 -33 -41 -89 -74 -101 -25 -8 -31 -6 -52
18 -51 60 -22 137 51 137 17 0 41 -7 53 -16z m-6200 -197 c19 -15 14 -71 -9
-101 -43 -55 -88 -57 -114 -6 -19 37 -19 70 0 97 21 31 89 36 123 10z m6205
-38 c41 -50 7 -123 -58 -123 -71 0 -101 79 -49 131 20 20 31 24 57 19 18 -3
40 -16 50 -27z m-6197 -204 c14 -21 14 -30 4 -54 -13 -32 -45 -64 -72 -74 -24
-9 -67 31 -74 68 -9 49 26 85 81 85 36 0 48 -5 61 -25z m6178 14 c36 -17 50
-63 30 -100 -30 -59 -92 -61 -130 -5 -19 30 -13 67 16 96 23 23 48 25 84 9z
m-6193 -218 c34 -35 37 -68 8 -105 -27 -35 -90 -37 -113 -4 -24 34 -20 85 9
113 32 33 60 31 96 -4z m6214 -11 c42 -47 11 -130 -47 -130 -42 0 -64 15 -77
51 -8 24 -7 37 4 59 17 32 27 38 71 39 19 1 38 -7 49 -19z m-6201 -206 c27
-27 20 -72 -18 -110 -19 -19 -43 -34 -53 -34 -29 0 -54 33 -60 78 -4 32 -1 44
16 61 26 26 92 29 115 5z m6200 -15 c63 -50 -1 -159 -77 -130 -49 19 -62 79
-26 125 25 32 66 34 103 5z m-6203 -209 c41 -23 11 -119 -45 -139 -31 -12 -64
8 -76 45 -20 60 9 104 66 104 20 0 44 -5 55 -10z m6213 -12 c22 -31 20 -84 -4
-108 -24 -24 -77 -26 -102 -3 -23 21 -24 89 -1 115 24 27 87 24 107 -4z
m-6211 -226 c28 -24 23 -86 -9 -111 -15 -12 -34 -21 -44 -21 -10 0 -29 9 -44
21 -20 16 -26 29 -26 58 0 69 69 99 123 53z m6205 12 c28 -20 31 -93 5 -117
-52 -46 -123 -17 -123 52 0 51 23 81 63 81 18 0 43 -7 55 -16z m-6203 -229
c14 -13 25 -36 25 -50 0 -61 -87 -98 -130 -55 -20 20 -27 74 -12 96 26 38 84
43 117 9z m6219 9 c47 -47 -36 -165 -94 -134 -41 22 -55 97 -23 132 21 23 95
25 117 2z m-1 -236 c38 -45 1 -128 -58 -128 -54 0 -92 70 -64 121 22 42 89 46
122 7z m-6213 2 c30 -30 26 -73 -11 -104 -38 -32 -63 -33 -94 -1 -29 29 -33
79 -8 107 23 25 87 24 113 -2z m6220 -220 c24 -24 24 -30 4 -73 -19 -40 -66
-71 -94 -62 -23 7 -50 54 -50 86 0 60 96 93 140 49z m-6207 -21 c49 -67 -63
-150 -118 -89 -26 28 -25 88 1 107 31 22 93 13 117 -18z m1 -211 c23 -32 20
-65 -9 -93 -48 -49 -125 -20 -125 47 0 46 25 68 76 68 33 0 46 -5 58 -22z
m6206 -5 c40 -51 3 -123 -61 -123 -59 0 -90 75 -53 128 23 34 86 31 114 -5z
m-6215 -208 c32 -31 32 -74 0 -109 -45 -49 -125 -26 -125 36 0 83 73 126 125
73z m6218 -12 c28 -26 22 -77 -14 -107 -38 -32 -63 -33 -94 -1 -73 72 31 177
108 108z m-6219 -224 c54 -42 18 -129 -54 -129 -34 0 -59 27 -66 72 -5 30 -2
38 21 56 35 28 65 28 99 1z m6214 -5 c25 -17 30 -68 9 -94 -19 -24 -60 -50
-79 -50 -21 0 -45 35 -54 76 -13 65 66 109 124 68z m-6206 -221 c35 -42 29
-89 -16 -119 -50 -32 -106 3 -106 66 0 29 6 43 22 54 30 21 81 20 100 -1z
m6199 -14 c48 -25 44 -105 -7 -128 -35 -16 -48 -14 -78 10 -31 24 -36 81 -9
111 18 20 64 24 94 7z m-6194 -211 c48 -45 13 -118 -58 -118 -28 0 -42 6 -53
22 -21 29 -20 77 1 100 23 25 81 24 110 -4z m6211 -34 c24 -28 28 -54 11 -87
-16 -30 -28 -37 -71 -37 -70 0 -92 77 -38 131 34 35 61 33 98 -7z m-6235 -155
c26 -12 47 -47 47 -78 0 -32 -39 -71 -71 -71 -78 0 -107 108 -38 146 30 16 32
17 62 3z m6237 -69 c12 -12 20 -33 20 -55 0 -45 -29 -75 -73 -75 -43 0 -71 30
-71 75 0 19 8 43 19 55 24 26 78 27 105 0z m-6196 -179 c32 -35 -7 -113 -65
-134 -26 -9 -57 20 -70 63 -10 33 -9 43 5 65 14 21 24 25 65 25 35 0 53 -5 65
-19z m6204 -47 c26 -29 27 -45 7 -84 -35 -67 -127 -41 -133 37 -3 34 1 44 25
62 33 27 68 21 101 -15z m-6213 -179 c55 -54 6 -135 -75 -126 -37 5 -66 83
-42 117 26 38 84 43 117 9z m6213 -21 c27 -19 28 -49 2 -91 -40 -67 -98 -69
-124 -3 -26 64 2 109 69 110 17 0 41 -7 53 -16z m-6237 -184 c20 0 49 -41 49
-69 0 -40 -53 -85 -89 -76 -14 4 -31 11 -38 16 -16 14 -26 64 -18 89 7 23 54
51 73 45 8 -3 18 -5 23 -5z m6237 -46 c29 -20 30 -76 2 -104 -48 -48 -114 -29
-126 35 -5 30 -2 41 17 61 26 28 73 32 107 8z m-6218 -174 c34 -18 42 -46 26
-83 -40 -97 -140 -82 -140 21 0 57 61 90 114 62z m6233 -52 c41 -48 -47 -155
-101 -122 -26 16 -45 84 -33 112 21 45 98 51 134 10z m-6211 -195 c23 -21 23
-50 -2 -90 -51 -85 -130 -59 -130 42 0 24 7 39 22 49 29 21 87 20 110 -1z
m6202 -19 c44 -44 17 -126 -43 -132 -66 -7 -105 69 -65 126 18 27 84 31 108 6z
m-6204 -214 c35 -35 22 -92 -27 -118 -32 -18 -51 -15 -78 13 -33 32 -34 87 -3
109 31 22 84 20 108 -4z m6193 -1 c29 -16 37 -28 37 -62 0 -37 -40 -77 -79
-77 -63 0 -95 90 -45 129 30 24 55 26 87 10z m-6176 -215 c16 -25 16 -28 -3
-62 -41 -76 -99 -90 -129 -32 -35 68 -5 120 70 120 37 0 47 -4 62 -26z m6188
-21 c44 -44 36 -105 -17 -131 -37 -18 -76 -5 -94 30 -16 30 -12 56 12 96 18
27 74 30 99 5z m-6185 -226 c13 -24 13 -30 0 -54 -9 -16 -29 -34 -45 -42 -25
-12 -32 -12 -54 0 -88 49 -38 171 54 134 17 -6 37 -23 45 -38z m6176 15 c23
-15 36 -54 29 -88 -7 -38 -44 -69 -73 -60 -15 5 -18 1 -18 -30 0 -43 -39 -84
-80 -84 -32 0 -74 42 -74 74 0 37 41 79 76 79 28 0 29 3 29 40 0 29 6 44 24
58 23 19 67 25 87 11z m-303 -139 c27 -25 22 -78 -9 -102 -54 -43 -124 -12
-124 54 0 65 81 94 133 48z m-910 -15 c26 -30 22 -73 -9 -97 -55 -43 -134 -14
-134 49 0 26 29 62 60 73 24 9 64 -2 83 -25z m218 6 c38 -35 19 -96 -35 -114
-45 -15 -73 -1 -92 46 -16 38 -8 64 24 84 23 14 80 5 103 -16z m227 6 c26 -24
29 -66 6 -98 -12 -17 -25 -22 -59 -22 -51 0 -75 24 -75 77 0 58 82 86 128 43z
m242 0 c27 -27 25 -66 -5 -95 -32 -33 -87 -34 -109 -3 -21 29 -20 77 1 100 23
25 87 24 113 -2z m-1166 0 c55 -21 59 -108 6 -130 -85 -35 -157 53 -95 115 26
27 49 31 89 15z m246 -10 c35 -35 23 -102 -22 -121 -27 -11 -36 -10 -67 7 -31
17 -36 24 -39 61 -2 33 1 44 20 57 31 22 84 20 108 -4z m-1617 -1 c47 -25 50
-73 8 -118 -55 -59 -121 -27 -121 58 0 58 59 88 113 60z m202 -4 c65 -26 65
-103 1 -130 -86 -37 -149 90 -66 132 31 16 24 16 65 -2z m265 -14 c26 -26 28
-32 20 -62 -14 -47 -37 -62 -85 -55 -41 5 -62 24 -72 65 -5 19 1 31 26 53 40
36 75 36 111 -1z m239 3 c26 -33 26 -54 1 -87 -24 -31 -60 -40 -97 -26 -34 13
-43 25 -43 66 0 67 98 100 139 47z m223 9 c27 -24 24 -87 -4 -107 -33 -24 -84
-20 -102 6 -21 29 -20 77 1 100 20 23 80 24 105 1z m252 -5 c22 -31 20 -60 -5
-92 -16 -20 -29 -26 -59 -26 -47 0 -70 27 -70 82 0 44 17 57 77 58 32 0 45 -5
57 -22z m-1421 1 c47 -25 50 -72 9 -112 -49 -47 -104 -28 -118 40 -5 26 -1 37
19 57 28 28 56 33 90 15z m-904 -14 c48 -24 55 -72 16 -110 -28 -29 -76 -33
-99 -9 -36 35 -32 103 6 122 31 15 44 14 77 -3z m235 -6 c32 -25 36 -77 8
-102 -57 -52 -134 -16 -127 59 6 63 66 85 119 43z m228 4 c24 -22 24 -77 -2
-103 -27 -27 -90 -27 -115 0 -44 49 -10 120 58 120 24 0 48 -7 59 -17z m228
-5 c62 -67 -45 -163 -110 -98 -24 24 -26 77 -3 102 23 26 87 24 113 -4z
m-1347 -15 c27 -25 22 -78 -9 -102 -59 -46 -118 -15 -112 60 2 35 8 46 28 56
28 15 67 9 93 -14z m233 5 c7 -7 16 -25 19 -40 6 -22 1 -33 -23 -58 -60 -59
-136 -28 -130 53 2 32 8 44 28 55 28 14 87 9 106 -10z m218 1 c44 -34 28 -93
-33 -118 -38 -16 -68 -1 -87 45 -15 35 -7 68 20 86 21 15 74 8 100 -13z
m-1361 -1 c53 -28 61 -76 21 -113 -52 -48 -124 -20 -124 48 0 37 7 49 35 65
26 15 41 15 68 0z m238 -9 c54 -38 33 -111 -37 -125 -40 -8 -73 20 -80 67 -11
69 56 102 117 58z m236 -1 c29 -27 29 -65 1 -95 -26 -28 -82 -31 -110 -6 -23
20 -24 80 -1 105 23 25 81 24 110 -4z m229 -3 c33 -51 -7 -115 -73 -115 -38 0
-63 29 -63 74 0 44 25 66 76 66 35 0 47 -5 60 -25z m-1122 -6 c37 -29 35 -70
-5 -103 -45 -38 -84 -34 -108 11 -41 79 42 148 113 92z m211 -4 c31 -30 32
-57 3 -89 -33 -36 -68 -42 -101 -16 -32 25 -37 82 -10 112 24 27 78 24 108 -7z"/>
</g>
</svg>
